<mxfile host="app.diagrams.net" modified="2024-03-11T18:45:05.414Z" agent="Mozilla/5.0 (Macintosh; Intel Mac OS X 10_15_7) AppleWebKit/537.36 (KHTML, like Gecko) Chrome/122.0.0.0 Safari/537.36" etag="mKnWNfUyrkoDnK-fo8Rs" version="24.0.1" type="device">
  <diagram id="C5RBs43oDa-KdzZeNtuy" name="Page-1">
    <mxGraphModel dx="884" dy="650" grid="1" gridSize="10" guides="1" tooltips="1" connect="1" arrows="1" fold="1" page="1" pageScale="1" pageWidth="827" pageHeight="1169" math="0" shadow="0">
      <root>
        <mxCell id="WIyWlLk6GJQsqaUBKTNV-0" />
        <mxCell id="WIyWlLk6GJQsqaUBKTNV-1" parent="WIyWlLk6GJQsqaUBKTNV-0" />
        <mxCell id="SjA8h_TmdkitIt6_YIUC-1" style="edgeStyle=orthogonalEdgeStyle;rounded=0;orthogonalLoop=1;jettySize=auto;html=1;endArrow=none;endFill=0;" edge="1" parent="WIyWlLk6GJQsqaUBKTNV-1" source="SjA8h_TmdkitIt6_YIUC-0">
          <mxGeometry relative="1" as="geometry">
            <mxPoint x="400" y="105" as="targetPoint" />
          </mxGeometry>
        </mxCell>
        <mxCell id="SjA8h_TmdkitIt6_YIUC-0" value="Начало" style="rounded=1;whiteSpace=wrap;html=1;arcSize=50;" vertex="1" parent="WIyWlLk6GJQsqaUBKTNV-1">
          <mxGeometry x="340" y="25" width="120" height="40" as="geometry" />
        </mxCell>
        <mxCell id="SjA8h_TmdkitIt6_YIUC-3" style="edgeStyle=orthogonalEdgeStyle;rounded=0;orthogonalLoop=1;jettySize=auto;html=1;endArrow=none;endFill=0;" edge="1" parent="WIyWlLk6GJQsqaUBKTNV-1">
          <mxGeometry relative="1" as="geometry">
            <mxPoint x="400" y="185.0000000000001" as="targetPoint" />
            <mxPoint x="400" y="145.0000000000001" as="sourcePoint" />
          </mxGeometry>
        </mxCell>
        <mxCell id="SjA8h_TmdkitIt6_YIUC-5" value="Введите текст:" style="shape=document;whiteSpace=wrap;html=1;boundedLbl=1;" vertex="1" parent="WIyWlLk6GJQsqaUBKTNV-1">
          <mxGeometry x="340" y="105" width="120" height="50" as="geometry" />
        </mxCell>
        <mxCell id="SjA8h_TmdkitIt6_YIUC-7" style="edgeStyle=orthogonalEdgeStyle;rounded=0;orthogonalLoop=1;jettySize=auto;html=1;endArrow=none;endFill=0;" edge="1" parent="WIyWlLk6GJQsqaUBKTNV-1" source="SjA8h_TmdkitIt6_YIUC-6" target="SjA8h_TmdkitIt6_YIUC-8">
          <mxGeometry relative="1" as="geometry">
            <mxPoint x="400" y="265" as="targetPoint" />
          </mxGeometry>
        </mxCell>
        <mxCell id="SjA8h_TmdkitIt6_YIUC-6" value="tx" style="shape=card;whiteSpace=wrap;html=1;size=20;" vertex="1" parent="WIyWlLk6GJQsqaUBKTNV-1">
          <mxGeometry x="360" y="185" width="80" height="40" as="geometry" />
        </mxCell>
        <mxCell id="SjA8h_TmdkitIt6_YIUC-10" style="edgeStyle=orthogonalEdgeStyle;rounded=0;orthogonalLoop=1;jettySize=auto;html=1;entryX=0.5;entryY=0;entryDx=0;entryDy=0;endArrow=none;endFill=0;" edge="1" parent="WIyWlLk6GJQsqaUBKTNV-1" source="SjA8h_TmdkitIt6_YIUC-8" target="SjA8h_TmdkitIt6_YIUC-9">
          <mxGeometry relative="1" as="geometry" />
        </mxCell>
        <mxCell id="SjA8h_TmdkitIt6_YIUC-8" value="ecx = 1&lt;div&gt;esi = 0&lt;/div&gt;" style="rounded=0;whiteSpace=wrap;html=1;" vertex="1" parent="WIyWlLk6GJQsqaUBKTNV-1">
          <mxGeometry x="340" y="265" width="120" height="40" as="geometry" />
        </mxCell>
        <mxCell id="SjA8h_TmdkitIt6_YIUC-11" style="edgeStyle=orthogonalEdgeStyle;rounded=0;orthogonalLoop=1;jettySize=auto;html=1;endArrow=none;endFill=0;" edge="1" parent="WIyWlLk6GJQsqaUBKTNV-1" source="SjA8h_TmdkitIt6_YIUC-9">
          <mxGeometry relative="1" as="geometry">
            <mxPoint x="400" y="445" as="targetPoint" />
          </mxGeometry>
        </mxCell>
        <mxCell id="SjA8h_TmdkitIt6_YIUC-9" value="ecx -= 1&lt;div&gt;edx = tx+ecx&lt;/div&gt;&lt;div&gt;eax = 0&lt;/div&gt;" style="rounded=0;whiteSpace=wrap;html=1;" vertex="1" parent="WIyWlLk6GJQsqaUBKTNV-1">
          <mxGeometry x="340" y="345" width="120" height="60" as="geometry" />
        </mxCell>
        <mxCell id="SjA8h_TmdkitIt6_YIUC-13" style="edgeStyle=orthogonalEdgeStyle;rounded=0;orthogonalLoop=1;jettySize=auto;html=1;endArrow=none;endFill=0;" edge="1" parent="WIyWlLk6GJQsqaUBKTNV-1" source="SjA8h_TmdkitIt6_YIUC-12">
          <mxGeometry relative="1" as="geometry">
            <mxPoint x="400" y="545" as="targetPoint" />
          </mxGeometry>
        </mxCell>
        <mxCell id="SjA8h_TmdkitIt6_YIUC-12" value="bl = [tx+ecx]&lt;div&gt;ecx ++&lt;/div&gt;" style="rounded=0;whiteSpace=wrap;html=1;" vertex="1" parent="WIyWlLk6GJQsqaUBKTNV-1">
          <mxGeometry x="340" y="445" width="120" height="60" as="geometry" />
        </mxCell>
        <mxCell id="SjA8h_TmdkitIt6_YIUC-15" style="edgeStyle=orthogonalEdgeStyle;rounded=0;orthogonalLoop=1;jettySize=auto;html=1;endArrow=none;endFill=0;" edge="1" parent="WIyWlLk6GJQsqaUBKTNV-1" source="SjA8h_TmdkitIt6_YIUC-14">
          <mxGeometry relative="1" as="geometry">
            <mxPoint x="400" y="625" as="targetPoint" />
          </mxGeometry>
        </mxCell>
        <mxCell id="SjA8h_TmdkitIt6_YIUC-42" style="edgeStyle=orthogonalEdgeStyle;rounded=0;orthogonalLoop=1;jettySize=auto;html=1;exitX=0;exitY=0.5;exitDx=0;exitDy=0;entryX=0.5;entryY=0;entryDx=0;entryDy=0;endArrow=none;endFill=0;" edge="1" parent="WIyWlLk6GJQsqaUBKTNV-1" source="SjA8h_TmdkitIt6_YIUC-14" target="SjA8h_TmdkitIt6_YIUC-39">
          <mxGeometry relative="1" as="geometry" />
        </mxCell>
        <mxCell id="SjA8h_TmdkitIt6_YIUC-14" value="bl == 10" style="rhombus;whiteSpace=wrap;html=1;" vertex="1" parent="WIyWlLk6GJQsqaUBKTNV-1">
          <mxGeometry x="360" y="545" width="80" height="50" as="geometry" />
        </mxCell>
        <mxCell id="SjA8h_TmdkitIt6_YIUC-16" style="edgeStyle=orthogonalEdgeStyle;rounded=0;orthogonalLoop=1;jettySize=auto;html=1;endArrow=none;endFill=0;" edge="1" parent="WIyWlLk6GJQsqaUBKTNV-1" source="SjA8h_TmdkitIt6_YIUC-17">
          <mxGeometry relative="1" as="geometry">
            <mxPoint x="400" y="705" as="targetPoint" />
          </mxGeometry>
        </mxCell>
        <mxCell id="SjA8h_TmdkitIt6_YIUC-27" style="edgeStyle=orthogonalEdgeStyle;rounded=0;orthogonalLoop=1;jettySize=auto;html=1;startArrow=none;startFill=0;entryX=0.5;entryY=0;entryDx=0;entryDy=0;endArrow=none;endFill=0;" edge="1" parent="WIyWlLk6GJQsqaUBKTNV-1" source="SjA8h_TmdkitIt6_YIUC-17" target="SjA8h_TmdkitIt6_YIUC-28">
          <mxGeometry relative="1" as="geometry">
            <mxPoint x="290" y="765" as="targetPoint" />
            <Array as="points">
              <mxPoint x="530" y="650" />
            </Array>
          </mxGeometry>
        </mxCell>
        <mxCell id="SjA8h_TmdkitIt6_YIUC-17" value="bl == &quot;&amp;nbsp; &quot;" style="rhombus;whiteSpace=wrap;html=1;" vertex="1" parent="WIyWlLk6GJQsqaUBKTNV-1">
          <mxGeometry x="360" y="625" width="80" height="50" as="geometry" />
        </mxCell>
        <mxCell id="SjA8h_TmdkitIt6_YIUC-18" style="edgeStyle=orthogonalEdgeStyle;rounded=0;orthogonalLoop=1;jettySize=auto;html=1;endArrow=none;endFill=0;" edge="1" parent="WIyWlLk6GJQsqaUBKTNV-1">
          <mxGeometry relative="1" as="geometry">
            <mxPoint x="399.75" y="865" as="targetPoint" />
            <mxPoint x="399.7500000000001" y="835" as="sourcePoint" />
          </mxGeometry>
        </mxCell>
        <mxCell id="SjA8h_TmdkitIt6_YIUC-35" style="edgeStyle=orthogonalEdgeStyle;rounded=0;orthogonalLoop=1;jettySize=auto;html=1;endArrow=none;endFill=0;entryX=0.5;entryY=0;entryDx=0;entryDy=0;" edge="1" parent="WIyWlLk6GJQsqaUBKTNV-1" source="SjA8h_TmdkitIt6_YIUC-19" target="SjA8h_TmdkitIt6_YIUC-37">
          <mxGeometry relative="1" as="geometry">
            <mxPoint x="280" y="935" as="targetPoint" />
            <Array as="points">
              <mxPoint x="300" y="810" />
            </Array>
          </mxGeometry>
        </mxCell>
        <mxCell id="SjA8h_TmdkitIt6_YIUC-19" value="bl == &quot;p&quot;" style="rhombus;whiteSpace=wrap;html=1;" vertex="1" parent="WIyWlLk6GJQsqaUBKTNV-1">
          <mxGeometry x="360" y="785" width="80" height="50" as="geometry" />
        </mxCell>
        <mxCell id="SjA8h_TmdkitIt6_YIUC-34" style="edgeStyle=orthogonalEdgeStyle;rounded=0;orthogonalLoop=1;jettySize=auto;html=1;endArrow=none;endFill=0;" edge="1" parent="WIyWlLk6GJQsqaUBKTNV-1" source="SjA8h_TmdkitIt6_YIUC-21">
          <mxGeometry relative="1" as="geometry">
            <mxPoint x="400" y="1020" as="targetPoint" />
          </mxGeometry>
        </mxCell>
        <mxCell id="SjA8h_TmdkitIt6_YIUC-36" style="edgeStyle=orthogonalEdgeStyle;rounded=0;orthogonalLoop=1;jettySize=auto;html=1;endArrow=none;endFill=0;entryX=0.5;entryY=0;entryDx=0;entryDy=0;" edge="1" parent="WIyWlLk6GJQsqaUBKTNV-1" source="SjA8h_TmdkitIt6_YIUC-21" target="SjA8h_TmdkitIt6_YIUC-37">
          <mxGeometry relative="1" as="geometry">
            <mxPoint x="280" y="935" as="targetPoint" />
            <Array as="points">
              <mxPoint x="300" y="890" />
            </Array>
          </mxGeometry>
        </mxCell>
        <mxCell id="SjA8h_TmdkitIt6_YIUC-21" value="bl == &quot;P&quot;" style="rhombus;whiteSpace=wrap;html=1;" vertex="1" parent="WIyWlLk6GJQsqaUBKTNV-1">
          <mxGeometry x="360" y="865" width="80" height="50" as="geometry" />
        </mxCell>
        <mxCell id="SjA8h_TmdkitIt6_YIUC-24" style="edgeStyle=orthogonalEdgeStyle;rounded=0;orthogonalLoop=1;jettySize=auto;html=1;endArrow=none;endFill=0;" edge="1" parent="WIyWlLk6GJQsqaUBKTNV-1" source="SjA8h_TmdkitIt6_YIUC-25">
          <mxGeometry relative="1" as="geometry">
            <mxPoint x="400" y="785" as="targetPoint" />
          </mxGeometry>
        </mxCell>
        <mxCell id="SjA8h_TmdkitIt6_YIUC-26" style="edgeStyle=orthogonalEdgeStyle;rounded=0;orthogonalLoop=1;jettySize=auto;html=1;" edge="1" parent="WIyWlLk6GJQsqaUBKTNV-1" source="SjA8h_TmdkitIt6_YIUC-25">
          <mxGeometry relative="1" as="geometry">
            <mxPoint x="400" y="325" as="targetPoint" />
            <Array as="points">
              <mxPoint x="260" y="730" />
              <mxPoint x="260" y="325" />
            </Array>
          </mxGeometry>
        </mxCell>
        <mxCell id="SjA8h_TmdkitIt6_YIUC-25" value="edx == 0" style="rhombus;whiteSpace=wrap;html=1;" vertex="1" parent="WIyWlLk6GJQsqaUBKTNV-1">
          <mxGeometry x="360" y="705" width="80" height="50" as="geometry" />
        </mxCell>
        <mxCell id="SjA8h_TmdkitIt6_YIUC-58" style="edgeStyle=orthogonalEdgeStyle;rounded=0;orthogonalLoop=1;jettySize=auto;html=1;endArrow=none;endFill=0;" edge="1" parent="WIyWlLk6GJQsqaUBKTNV-1" source="SjA8h_TmdkitIt6_YIUC-28">
          <mxGeometry relative="1" as="geometry">
            <mxPoint x="430" y="1020" as="targetPoint" />
            <Array as="points">
              <mxPoint x="460" y="700" />
              <mxPoint x="460" y="1020" />
            </Array>
          </mxGeometry>
        </mxCell>
        <mxCell id="SjA8h_TmdkitIt6_YIUC-28" value="edx == 0" style="rhombus;whiteSpace=wrap;html=1;" vertex="1" parent="WIyWlLk6GJQsqaUBKTNV-1">
          <mxGeometry x="490" y="675" width="80" height="50" as="geometry" />
        </mxCell>
        <mxCell id="SjA8h_TmdkitIt6_YIUC-33" style="edgeStyle=orthogonalEdgeStyle;rounded=0;orthogonalLoop=1;jettySize=auto;html=1;endArrow=classic;endFill=1;" edge="1" parent="WIyWlLk6GJQsqaUBKTNV-1" source="SjA8h_TmdkitIt6_YIUC-32">
          <mxGeometry relative="1" as="geometry">
            <mxPoint x="400" y="430" as="targetPoint" />
            <Array as="points">
              <mxPoint x="530" y="1020" />
              <mxPoint x="120" y="1020" />
              <mxPoint x="120" y="430" />
            </Array>
          </mxGeometry>
        </mxCell>
        <mxCell id="SjA8h_TmdkitIt6_YIUC-41" style="edgeStyle=orthogonalEdgeStyle;rounded=0;orthogonalLoop=1;jettySize=auto;html=1;endArrow=none;endFill=0;" edge="1" parent="WIyWlLk6GJQsqaUBKTNV-1" source="SjA8h_TmdkitIt6_YIUC-32">
          <mxGeometry relative="1" as="geometry">
            <mxPoint x="400" y="1105" as="targetPoint" />
            <Array as="points">
              <mxPoint x="600" y="920" />
              <mxPoint x="600" y="1045" />
              <mxPoint x="400" y="1045" />
            </Array>
          </mxGeometry>
        </mxCell>
        <mxCell id="SjA8h_TmdkitIt6_YIUC-32" value="esi == 0" style="rhombus;whiteSpace=wrap;html=1;" vertex="1" parent="WIyWlLk6GJQsqaUBKTNV-1">
          <mxGeometry x="490" y="895" width="80" height="50" as="geometry" />
        </mxCell>
        <mxCell id="SjA8h_TmdkitIt6_YIUC-38" style="edgeStyle=orthogonalEdgeStyle;rounded=0;orthogonalLoop=1;jettySize=auto;html=1;endArrow=none;endFill=0;" edge="1" parent="WIyWlLk6GJQsqaUBKTNV-1" source="SjA8h_TmdkitIt6_YIUC-37">
          <mxGeometry relative="1" as="geometry">
            <mxPoint x="300" y="1020" as="targetPoint" />
          </mxGeometry>
        </mxCell>
        <mxCell id="SjA8h_TmdkitIt6_YIUC-37" value="eax++" style="rounded=0;whiteSpace=wrap;html=1;" vertex="1" parent="WIyWlLk6GJQsqaUBKTNV-1">
          <mxGeometry x="260" y="935" width="80" height="40" as="geometry" />
        </mxCell>
        <mxCell id="SjA8h_TmdkitIt6_YIUC-45" style="edgeStyle=orthogonalEdgeStyle;rounded=0;orthogonalLoop=1;jettySize=auto;html=1;endArrow=none;endFill=0;" edge="1" parent="WIyWlLk6GJQsqaUBKTNV-1" source="SjA8h_TmdkitIt6_YIUC-39">
          <mxGeometry relative="1" as="geometry">
            <mxPoint x="200" y="1020" as="targetPoint" />
          </mxGeometry>
        </mxCell>
        <mxCell id="SjA8h_TmdkitIt6_YIUC-39" value="esi = 1" style="rounded=0;whiteSpace=wrap;html=1;" vertex="1" parent="WIyWlLk6GJQsqaUBKTNV-1">
          <mxGeometry x="160" y="595" width="80" height="40" as="geometry" />
        </mxCell>
        <mxCell id="SjA8h_TmdkitIt6_YIUC-44" value="Конец" style="rounded=1;whiteSpace=wrap;html=1;arcSize=50;" vertex="1" parent="WIyWlLk6GJQsqaUBKTNV-1">
          <mxGeometry x="340" y="1105" width="120" height="40" as="geometry" />
        </mxCell>
        <mxCell id="SjA8h_TmdkitIt6_YIUC-46" value="Yes" style="text;html=1;align=center;verticalAlign=middle;whiteSpace=wrap;rounded=0;" vertex="1" parent="WIyWlLk6GJQsqaUBKTNV-1">
          <mxGeometry x="330" y="550" width="30" height="10" as="geometry" />
        </mxCell>
        <mxCell id="SjA8h_TmdkitIt6_YIUC-47" value="No" style="text;html=1;align=center;verticalAlign=middle;whiteSpace=wrap;rounded=0;" vertex="1" parent="WIyWlLk6GJQsqaUBKTNV-1">
          <mxGeometry x="399" y="595" width="30" height="10" as="geometry" />
        </mxCell>
        <mxCell id="SjA8h_TmdkitIt6_YIUC-48" value="No" style="text;html=1;align=center;verticalAlign=middle;whiteSpace=wrap;rounded=0;" vertex="1" parent="WIyWlLk6GJQsqaUBKTNV-1">
          <mxGeometry x="399" y="675" width="30" height="10" as="geometry" />
        </mxCell>
        <mxCell id="SjA8h_TmdkitIt6_YIUC-49" value="No" style="text;html=1;align=center;verticalAlign=middle;whiteSpace=wrap;rounded=0;" vertex="1" parent="WIyWlLk6GJQsqaUBKTNV-1">
          <mxGeometry x="399" y="755" width="30" height="10" as="geometry" />
        </mxCell>
        <mxCell id="SjA8h_TmdkitIt6_YIUC-50" value="No" style="text;html=1;align=center;verticalAlign=middle;whiteSpace=wrap;rounded=0;" vertex="1" parent="WIyWlLk6GJQsqaUBKTNV-1">
          <mxGeometry x="399" y="835" width="30" height="10" as="geometry" />
        </mxCell>
        <mxCell id="SjA8h_TmdkitIt6_YIUC-51" value="No" style="text;html=1;align=center;verticalAlign=middle;whiteSpace=wrap;rounded=0;" vertex="1" parent="WIyWlLk6GJQsqaUBKTNV-1">
          <mxGeometry x="399" y="915" width="30" height="10" as="geometry" />
        </mxCell>
        <mxCell id="SjA8h_TmdkitIt6_YIUC-52" value="Yes" style="text;html=1;align=center;verticalAlign=middle;whiteSpace=wrap;rounded=0;" vertex="1" parent="WIyWlLk6GJQsqaUBKTNV-1">
          <mxGeometry x="340" y="710" width="30" height="10" as="geometry" />
        </mxCell>
        <mxCell id="SjA8h_TmdkitIt6_YIUC-53" value="Yes" style="text;html=1;align=center;verticalAlign=middle;whiteSpace=wrap;rounded=0;" vertex="1" parent="WIyWlLk6GJQsqaUBKTNV-1">
          <mxGeometry x="440" y="635" width="30" height="10" as="geometry" />
        </mxCell>
        <mxCell id="SjA8h_TmdkitIt6_YIUC-54" value="Yes" style="text;html=1;align=center;verticalAlign=middle;whiteSpace=wrap;rounded=0;" vertex="1" parent="WIyWlLk6GJQsqaUBKTNV-1">
          <mxGeometry x="340" y="790" width="30" height="10" as="geometry" />
        </mxCell>
        <mxCell id="SjA8h_TmdkitIt6_YIUC-55" value="Yes" style="text;html=1;align=center;verticalAlign=middle;whiteSpace=wrap;rounded=0;" vertex="1" parent="WIyWlLk6GJQsqaUBKTNV-1">
          <mxGeometry x="340" y="870" width="30" height="10" as="geometry" />
        </mxCell>
        <mxCell id="SjA8h_TmdkitIt6_YIUC-56" value="Yes" style="text;html=1;align=center;verticalAlign=middle;whiteSpace=wrap;rounded=0;" vertex="1" parent="WIyWlLk6GJQsqaUBKTNV-1">
          <mxGeometry x="500" y="950" width="30" height="10" as="geometry" />
        </mxCell>
        <mxCell id="SjA8h_TmdkitIt6_YIUC-57" value="No" style="text;html=1;align=center;verticalAlign=middle;whiteSpace=wrap;rounded=0;" vertex="1" parent="WIyWlLk6GJQsqaUBKTNV-1">
          <mxGeometry x="560" y="905" width="30" height="10" as="geometry" />
        </mxCell>
        <mxCell id="SjA8h_TmdkitIt6_YIUC-59" value="No" style="text;html=1;align=center;verticalAlign=middle;whiteSpace=wrap;rounded=0;" vertex="1" parent="WIyWlLk6GJQsqaUBKTNV-1">
          <mxGeometry x="530" y="725" width="30" height="10" as="geometry" />
        </mxCell>
        <mxCell id="SjA8h_TmdkitIt6_YIUC-60" value="Yes" style="text;html=1;align=center;verticalAlign=middle;whiteSpace=wrap;rounded=0;" vertex="1" parent="WIyWlLk6GJQsqaUBKTNV-1">
          <mxGeometry x="460" y="685" width="30" height="10" as="geometry" />
        </mxCell>
        <mxCell id="SjA8h_TmdkitIt6_YIUC-61" value="" style="edgeStyle=orthogonalEdgeStyle;rounded=0;orthogonalLoop=1;jettySize=auto;html=1;endArrow=none;endFill=0;" edge="1" parent="WIyWlLk6GJQsqaUBKTNV-1" source="SjA8h_TmdkitIt6_YIUC-28" target="SjA8h_TmdkitIt6_YIUC-30">
          <mxGeometry relative="1" as="geometry">
            <mxPoint x="530" y="785" as="targetPoint" />
            <mxPoint x="530" y="725" as="sourcePoint" />
          </mxGeometry>
        </mxCell>
        <mxCell id="SjA8h_TmdkitIt6_YIUC-62" style="edgeStyle=orthogonalEdgeStyle;rounded=0;orthogonalLoop=1;jettySize=auto;html=1;exitX=0.511;exitY=0.824;exitDx=0;exitDy=0;exitPerimeter=0;" edge="1" parent="WIyWlLk6GJQsqaUBKTNV-1" source="SjA8h_TmdkitIt6_YIUC-30" target="SjA8h_TmdkitIt6_YIUC-63">
          <mxGeometry relative="1" as="geometry">
            <mxPoint x="530" y="830" as="targetPoint" />
            <Array as="points">
              <mxPoint x="530" y="791" />
            </Array>
          </mxGeometry>
        </mxCell>
        <mxCell id="SjA8h_TmdkitIt6_YIUC-30" value="tx, txi" style="shape=document;whiteSpace=wrap;html=1;boundedLbl=1;" vertex="1" parent="WIyWlLk6GJQsqaUBKTNV-1">
          <mxGeometry x="480" y="750" width="100" height="50" as="geometry" />
        </mxCell>
        <mxCell id="SjA8h_TmdkitIt6_YIUC-64" style="edgeStyle=orthogonalEdgeStyle;rounded=0;orthogonalLoop=1;jettySize=auto;html=1;entryX=0.5;entryY=0;entryDx=0;entryDy=0;endArrow=none;endFill=0;" edge="1" parent="WIyWlLk6GJQsqaUBKTNV-1" source="SjA8h_TmdkitIt6_YIUC-63" target="SjA8h_TmdkitIt6_YIUC-32">
          <mxGeometry relative="1" as="geometry" />
        </mxCell>
        <mxCell id="SjA8h_TmdkitIt6_YIUC-63" value="edx = 0" style="rounded=0;whiteSpace=wrap;html=1;" vertex="1" parent="WIyWlLk6GJQsqaUBKTNV-1">
          <mxGeometry x="497.5" y="830" width="65" height="40" as="geometry" />
        </mxCell>
      </root>
    </mxGraphModel>
  </diagram>
</mxfile>
